# xmcd CD database file
#
# Track frame offsets:
#	150
#	37043
#	77283
#	105280
#	143676
#	169258
#	218004
#	247402
#	281000
#
# Disc length: 4227 seconds
#
# Revision: 0
# Processed by: cddbd v1.5.2PL0 Copyright (c) Steve Scherf et al.
# Submitted via: CDex 1.51
#
DISCID=78108109
DTITLE=Peter Asplund Quartet - Aplund meets Bernstein
DYEAR=2010
DGENRE=Jazz
TTITLE0=A simple song
TTITLE1=Glitter and thr gay
TTITLE2=It´s love
TTITLE3=Some other time
TTITLE4=It must be so
TTITLE5=I feel pretty
TTITLE6=Somewhere
TTITLE7=Tonight
TTITLE8=Neverland
EXTD=YEAR: 2010
EXTT0=
EXTT1=
EXTT2=
EXTT3=
EXTT4=
EXTT5=
EXTT6=
EXTT7=
EXTT8=
PLAYORDER=
